<svg width="14" height="11" viewBox="0 0 14 11" fill="none" xmlns="http://www.w3.org/2000/svg">
<path d="M8.17001 6.82021C7.82171 7.05242 7.41713 7.17516 7 7.17516C6.5829 7.17516 6.17832 7.05242 5.83002 6.82021L0.0932148 2.99556C0.0613867 2.97434 0.0303789 2.95222 0 2.92947V9.19658C0 9.91512 0.583105 10.4854 1.28879 10.4854H12.7112C13.4297 10.4854 14 9.90226 14 9.19658V2.92944C13.9695 2.95225 13.9385 2.97442 13.9066 2.99567L8.17001 6.82021Z" fill="#2254A6"/>
<path d="M0.548242 2.31306L6.28504 6.13774C6.50221 6.28253 6.75109 6.35491 6.99997 6.35491C7.24888 6.35491 7.49779 6.2825 7.71496 6.13774L13.4518 2.31306C13.7951 2.08433 14 1.70152 14 1.28836C14 0.577938 13.422 0 12.7116 0H1.28836C0.577965 2.73438e-05 0 0.577965 0 1.28904C0 1.70152 0.204969 2.08433 0.548242 2.31306V2.31306Z" fill="#2254A6"/>
</svg>
