<svg width="18" height="18" viewBox="0 0 18 18" fill="none" xmlns="http://www.w3.org/2000/svg">
<path fill-rule="evenodd" clip-rule="evenodd" d="M8.10372 16.2596C8.10372 15.7523 7.70243 15.3411 7.20742 15.3411H2.72594V2.48267H7.20742C7.70243 2.48267 8.10372 2.07146 8.10372 1.56421C8.10372 1.05696 7.70243 0.645752 7.20742 0.645752H2.72594C1.73592 0.645752 0.93335 1.46817 0.93335 2.48267V15.3411C0.93335 16.3556 1.73592 17.178 2.72594 17.178H7.20742C7.70243 17.178 8.10372 16.7668 8.10372 16.2596Z" fill="white"/>
<path d="M17.7063 9.55532C17.7893 9.46867 17.8522 9.36934 17.895 9.26347C17.9385 9.15598 17.9626 9.03818 17.963 8.91465L17.963 8.9119L17.963 8.90914C17.9623 8.67501 17.8748 8.44109 17.7005 8.26245L14.1153 4.58861C13.7653 4.22992 13.1977 4.22992 12.8477 4.58861C12.4977 4.94729 12.4977 5.52882 12.8477 5.8875L14.9028 7.99344H6.31113C5.81612 7.99344 5.41483 8.40464 5.41483 8.9119C5.41483 9.41915 5.81612 9.83036 6.31113 9.83036H14.9028L12.8477 11.9363C12.4977 12.295 12.4977 12.8765 12.8477 13.2352C13.1977 13.5939 13.7653 13.5939 14.1153 13.2352L17.6998 9.562L17.7063 9.55532Z" fill="white"/>
</svg>
