<svg width="18" height="10" viewBox="0 0 18 11" fill="none" xmlns="http://www.w3.org/2000/svg">
<path opacity="0.6" d="M9.00004 0C7.52351 0 6.22559 0.252345 5.1064 0.757017C3.98722 1.26169 3.04979 1.83345 2.29384 2.47217C1.5379 3.11101 0.966658 3.72738 0.579991 4.32145C0.193325 4.91552 0 5.30841 0 5.49999C0 5.69165 0.193448 6.08455 0.579991 6.67853C0.966535 7.2725 1.53805 7.88903 2.29384 8.52781C3.04979 9.16665 3.9872 9.73831 5.1064 10.243C6.2256 10.7476 7.52343 11 9.00004 11C10.4766 11 11.7746 10.7476 12.8937 10.243C14.0127 9.73833 14.9503 9.16655 15.7061 8.52781C16.4621 7.88897 17.0333 7.2726 17.42 6.67853C17.8067 6.08446 18 5.69157 18 5.49999C18 5.30841 17.8066 4.91543 17.42 4.32145C17.0333 3.72727 16.4619 3.11095 15.7061 2.47217C14.9503 1.83334 14.0128 1.26167 12.8937 0.757017C11.7746 0.252364 10.4766 0 9.00004 0ZM9.00004 9.73526C8.44933 9.73526 7.93067 9.6235 7.44444 9.39992C6.95821 9.17634 6.53336 8.87281 6.17004 8.48952C5.8067 8.10623 5.51973 7.65915 5.30878 7.14804C5.09782 6.63692 4.99236 6.0877 4.99236 5.49991C4.99236 4.92497 5.09784 4.37879 5.30878 3.86141C5.51972 3.34404 5.80684 2.8936 6.17004 2.51029C6.53338 2.127 6.95814 1.82676 7.44444 1.60951C7.93074 1.39225 8.44936 1.28378 9.00004 1.28378C9.55086 1.28378 10.0694 1.39235 10.5557 1.60951C11.0421 1.82667 11.4668 2.127 11.8302 2.51029C12.1934 2.89358 12.4805 3.34394 12.6914 3.86141C12.9023 4.37894 13.0079 4.92505 13.0079 5.49991C13.0079 6.08756 12.9024 6.63691 12.6914 7.14804C12.4804 7.65903 12.1934 8.10623 11.8302 8.48952C11.4668 8.87281 11.0421 9.17623 10.5557 9.39992C10.0694 9.62362 9.55086 9.73526 9.00004 9.73526ZM9.00004 5.50009C8.81256 5.28296 8.83895 4.87731 9.07914 4.28313C9.31932 3.68894 9.29308 3.39196 9.00004 3.39196C8.44933 3.39196 7.97765 3.59954 7.58506 4.01474C7.19247 4.42994 6.99623 4.92507 6.99623 5.49993C6.99623 6.08758 7.19253 6.58593 7.58506 6.99475C7.9776 7.40356 8.44936 7.60798 9.00004 7.60798C9.55086 7.60798 10.0226 7.4036 10.4152 6.99475C10.8078 6.58589 11.004 6.08772 11.004 5.49993C11.004 5.23162 10.7081 5.21237 10.1163 5.44235C9.52439 5.67233 9.15242 5.69157 9.00004 5.50009Z" fill="#808080"/>
<path d="M2 9L9 5.5L16 2" stroke="#B3B3B3" stroke-width="3" stroke-linecap="round"/>
</svg>
