<svg width="14" height="14" viewBox="0 0 14 14" fill="none" xmlns="http://www.w3.org/2000/svg">
<path d="M7 0C6.47312 0 5.97618 0.0928951 5.50916 0.278689C5.04215 0.464482 4.63502 0.715845 4.28776 1.03279C3.94049 1.34973 3.66508 1.72131 3.46151 2.14754C3.26992 2.57377 3.17412 3.02732 3.17412 3.5082V5.60656H2.40176C1.98265 5.60656 1.62341 5.74317 1.32405 6.01639C1.02468 6.28962 0.875 6.61748 0.875 7V12.5902C0.875 12.9836 1.02468 13.3169 1.32405 13.5902C1.62341 13.8634 1.98265 14 2.40176 14H11.5982C12.0174 14 12.3766 13.8634 12.676 13.5902C12.9753 13.3169 13.125 12.9836 13.125 12.5902V7C13.125 6.61748 12.9753 6.28962 12.676 6.01639C12.3766 5.74317 12.0174 5.60656 11.5982 5.60656H10.8259V3.5082C10.8259 3.02732 10.7301 2.57377 10.5385 2.14754C10.3349 1.72131 10.0595 1.34973 9.71224 1.03279C9.36498 0.715845 8.95785 0.464482 8.49084 0.278689C8.02382 0.0928951 7.52688 0 7 0ZM4.70088 3.5082C4.70088 2.92896 4.9254 2.43443 5.37445 2.02459C5.8235 1.61475 6.36534 1.40984 7 1.40984C7.63466 1.40984 8.1765 1.61475 8.62555 2.02459C9.0746 2.43443 9.29912 2.92896 9.29912 3.5082V5.60656H4.70088V3.5082ZM7.77236 11V12.5902H6.22764V11C5.95222 10.8579 5.74267 10.6475 5.59897 10.3689C5.45528 10.0902 5.42534 9.78142 5.50916 9.44262C5.58101 9.19126 5.72171 8.97268 5.93127 8.78689C6.14082 8.60109 6.3893 8.48087 6.67669 8.42623C7.16765 8.3388 7.59873 8.43716 7.96994 8.72131C8.34116 9.00547 8.52676 9.36612 8.52676 9.80328C8.52676 10.0546 8.45791 10.2869 8.3202 10.5C8.18249 10.7131 7.99988 10.8798 7.77236 11Z" fill="#2254A6"/>
</svg>
