<svg width="32" height="34" viewBox="0 0 32 34" fill="none" xmlns="http://www.w3.org/2000/svg">
<ellipse opacity="0.1" cx="15.6643" cy="17" rx="15.5" ry="17" fill="#2A01FF"/>
<path d="M14.8857 11.1617C15.3344 10.7794 15.9942 10.7794 16.4429 11.1617L17.206 11.8121C17.3982 11.9759 17.6373 12.0749 17.8891 12.095L18.8885 12.1748C19.4761 12.2216 19.9427 12.6882 19.9896 13.2758L20.0693 14.2752C20.0894 14.527 20.1884 14.7661 20.3523 14.9583L21.0026 15.7214C21.3849 16.1701 21.3849 16.8299 21.0026 17.2786L20.3523 18.0417C20.1884 18.2339 20.0894 18.473 20.0693 18.7248L19.9896 19.7242C19.9427 20.3118 19.4761 20.7784 18.8885 20.8252L17.8891 20.905C17.6373 20.9251 17.3982 21.0241 17.206 21.1879L16.4429 21.8383C15.9942 22.2206 15.3344 22.2206 14.8857 21.8383L14.1226 21.1879C13.9304 21.0241 13.6913 20.9251 13.4396 20.905L12.4401 20.8252C11.8525 20.7784 11.386 20.3118 11.3391 19.7242L11.2593 18.7248C11.2392 18.473 11.1402 18.2339 10.9764 18.0417L10.3261 17.2786C9.94372 16.8299 9.94372 16.1701 10.3261 15.7214L10.9764 14.9583C11.1402 14.7661 11.2392 14.527 11.2593 14.2752L11.3391 13.2758C11.386 12.6882 11.8525 12.2216 12.4401 12.1748L13.4396 12.095C13.6913 12.0749 13.9304 11.9759 14.1226 11.8121L14.8857 11.1617Z" stroke="#9B9494" stroke-width="2" stroke-linecap="round" stroke-linejoin="round"/>
<path d="M16.6018 19C16.6018 19.5177 16.1821 19.9375 15.6643 19.9375C15.1465 19.9375 14.7268 19.5177 14.7268 19C14.7268 18.4822 15.1465 18.0625 15.6643 18.0625C16.1821 18.0625 16.6018 18.4822 16.6018 19Z" fill="#9B9494"/>
<path d="M14.7804 14.1339C15.0239 13.8904 15.3429 13.7683 15.6621 13.7678C15.9827 13.7672 16.3036 13.8892 16.5482 14.1339C16.7923 14.378 16.9143 14.6979 16.9143 15.0178C16.9143 15.3377 16.7923 15.6576 16.5482 15.9017C16.3036 16.1463 15.9827 16.2683 15.6621 16.2678L15.6643 16.8928" stroke="#9B9494" stroke-width="2" stroke-linecap="round" stroke-linejoin="round"/>
</svg>
