  <svg
                width="50"
                height="15"
                viewBox="0 0 50 15"
                fill="none"
                xmlns="http://www.w3.org/2000/svg"
              >
                <path
                  d="M3.04 15C2.50667 15 2.01333 14.8667 1.56 14.6C1.10667 14.3333 0.746667 13.9733 0.48 13.52C0.213333 13.0667 0.08 12.5733 0.08 12.04V10.7H3.18V11.88H11.34V9.36H3.04C2.50667 9.36 2.01333 9.22667 1.56 8.96C1.10667 8.69333 0.746667 8.34 0.48 7.9C0.213333 7.44667 0.08 6.94667 0.08 6.4V3.56C0.08 3.01333 0.213333 2.52 0.48 2.08C0.746667 1.62667 1.10667 1.26667 1.56 0.999999C2.01333 0.733333 2.50667 0.599999 3.04 0.599999H11.52C12.0533 0.599999 12.54 0.733333 12.98 0.999999C13.4333 1.26667 13.7933 1.62667 14.06 2.08C14.34 2.52 14.48 3.01333 14.48 3.56V4.9H11.34V3.72H3.18V6.24H11.52C12.0533 6.24 12.54 6.37333 12.98 6.64C13.4333 6.90667 13.7933 7.26667 14.06 7.72C14.34 8.16 14.48 8.65333 14.48 9.2V12.04C14.48 12.5733 14.34 13.0667 14.06 13.52C13.7933 13.9733 13.4333 14.3333 12.98 14.6C12.54 14.8667 12.0533 15 11.52 15H3.04ZM19.6425 15C19.0958 15 18.5958 14.8667 18.1425 14.6C17.7025 14.3333 17.3492 13.98 17.0825 13.54C16.8158 13.0867 16.6825 12.5867 16.6825 12.04V3.56C16.6825 3.01333 16.8158 2.52 17.0825 2.08C17.3492 1.62667 17.7025 1.26667 18.1425 0.999999C18.5958 0.733333 19.0958 0.599999 19.6425 0.599999H31.0425V3.72H20.4425C20.2292 3.72 20.0625 3.77333 19.9425 3.88C19.8358 3.98667 19.7825 4.15333 19.7825 4.38V11.22C19.7825 11.4333 19.8358 11.6 19.9425 11.72C20.0625 11.8267 20.2292 11.88 20.4425 11.88H31.0425V15H19.6425ZM33.1278 15V0.599999H36.3278L41.2078 6.42L46.0678 0.599999H49.2878V15H46.1678V5.34L41.2078 11.26L36.2278 5.36V15H33.1278Z"
                  fill="#222222"
                />
              </svg>