<svg width="19" height="19" viewBox="0 0 19 19" fill="none" xmlns="http://www.w3.org/2000/svg">
<path d="M18.3869 17.4945L18.3869 17.4945L13.9201 13.0991C15.0864 11.8071 15.8012 10.1104 15.8012 8.2456C15.8006 4.20116 12.4696 0.925 8.36281 0.925C4.25602 0.925 0.925 4.20116 0.925 8.2456C0.925 12.29 4.25602 15.5662 8.36281 15.5662C10.1133 15.5662 11.7211 14.9689 12.9917 13.9731L17.4803 18.3901C17.7305 18.6366 18.1362 18.6366 18.3864 18.3902C18.6378 18.1431 18.6378 17.7416 18.3869 17.4945ZM8.36281 14.3014C4.96239 14.3014 2.20787 11.589 2.20787 8.2456C2.20787 4.90218 4.96239 2.18978 8.36281 2.18978C11.7633 2.18978 14.5178 4.90218 14.5178 8.2456C14.5178 11.589 11.7633 14.3014 8.36281 14.3014Z" fill="#9B9494" stroke="black" stroke-width="0.15"/>
</svg>
