<svg width="36" height="36" viewBox="0 0 36 36" fill="none" xmlns="http://www.w3.org/2000/svg">
<circle cx="18" cy="18" r="17.5" fill="white" stroke="white"/>
<path d="M17.5725 17.7072C18.6313 17.7072 19.5482 17.3275 20.2973 16.5782C21.0465 15.8291 21.4262 14.9125 21.4262 13.8535C21.4262 12.7949 21.0465 11.8782 20.2972 11.1288C19.548 10.3798 18.6312 10 17.5725 10C16.5135 10 15.5969 10.3798 14.8478 11.1289C14.0986 11.878 13.7188 12.7948 13.7188 13.8535C13.7188 14.9125 14.0986 15.8292 14.8479 16.5783C15.5972 17.3274 16.5139 17.7072 17.5725 17.7072Z" fill="#2254A6"/>
<path d="M24.3165 22.3031C24.2949 21.9913 24.2512 21.6512 24.1868 21.2921C24.1219 20.9303 24.0383 20.5882 23.9382 20.2756C23.8348 19.9525 23.6942 19.6334 23.5203 19.3276C23.3399 19.0102 23.128 18.7339 22.8902 18.5065C22.6416 18.2686 22.3371 18.0773 21.9851 17.9377C21.6342 17.7989 21.2454 17.7286 20.8296 17.7286C20.6662 17.7286 20.5083 17.7957 20.2032 17.9943C20.0155 18.1167 19.7959 18.2583 19.5507 18.4149C19.3412 18.5485 19.0572 18.6736 18.7065 18.7869C18.3644 18.8976 18.0169 18.9537 17.674 18.9537C17.3312 18.9537 16.9839 18.8976 16.6413 18.7869C16.291 18.6737 16.0071 18.5486 15.7977 18.415C15.5549 18.2599 15.3352 18.1183 15.1446 17.9941C14.84 17.7955 14.6819 17.7285 14.5185 17.7285C14.1025 17.7285 13.7139 17.7989 13.3631 17.9379C13.0113 18.0771 12.7068 18.2684 12.4579 18.5066C12.2202 18.7341 12.0082 19.0104 11.828 19.3276C11.6543 19.6334 11.5137 19.9524 11.4102 20.2757C11.3102 20.5884 11.2266 20.9303 11.1616 21.2921C11.0973 21.6507 11.0536 21.991 11.032 22.3034C11.0107 22.6096 11 22.9273 11 23.2483C11 24.0835 11.2655 24.7596 11.7891 25.2583C12.3061 25.7503 12.9903 26 13.8224 26H21.5264C22.3585 26 23.0424 25.7505 23.5596 25.2583C24.0833 24.76 24.3488 24.0837 24.3488 23.2481C24.3487 22.9258 24.3378 22.6078 24.3165 22.3031Z" fill="#2254A6"/>
</svg>
